<svg width="19" height="20" viewBox="0 0 19 20" fill="none" xmlns="http://www.w3.org/2000/svg">
<path d="M12.784 0.277344H5.89397C2.72345 0.277344 0.152344 2.94282 0.152344 6.22973V13.3726C0.152344 16.6594 2.72345 19.3249 5.89397 19.3249H12.784C15.9544 19.3249 18.5256 16.6594 18.5256 13.3726V6.22973C18.5256 2.94282 15.9544 0.277344 12.784 0.277344ZM16.8031 13.3726C16.8031 15.6702 15.0002 17.5392 12.784 17.5392H5.89397C3.6777 17.5392 1.87483 15.6702 1.87483 13.3726V6.22973C1.87483 3.93211 3.6777 2.06306 5.89397 2.06306H12.784C15.0002 2.06306 16.8031 3.93211 16.8031 6.22973V13.3726Z" fill="white"/>
<path d="M9.33894 5.03906C6.80226 5.03906 4.74561 7.17121 4.74561 9.80095C4.74561 12.4308 6.80226 14.5629 9.33894 14.5629C11.8756 14.5629 13.9322 12.4308 13.9322 9.80095C13.9322 7.17121 11.8756 5.03906 9.33894 5.03906ZM9.33894 12.7771C7.75651 12.7771 6.46809 11.4414 6.46809 9.80095C6.46809 8.1593 7.75651 6.82478 9.33894 6.82478C10.9213 6.82478 12.2098 8.1593 12.2098 9.80095C12.2098 11.4414 10.9213 12.7771 9.33894 12.7771Z" fill="white"/>
<path d="M14.2771 5.3164C14.6151 5.3164 14.8892 5.03232 14.8892 4.68189C14.8892 4.33145 14.6151 4.04736 14.2771 4.04736C13.9391 4.04736 13.665 4.33145 13.665 4.68189C13.665 5.03232 13.9391 5.3164 14.2771 5.3164Z" fill="white"/>
</svg>
