<svg width="109" height="23" viewBox="0 0 109 23" fill="none" xmlns="http://www.w3.org/2000/svg">
<g clip-path="url(#clip0_51_2750)">
<path d="M2.24049 17.4483V7.87712H0.170258V5.47877H2.24049V4.79036C2.24049 3.44314 2.62466 2.40682 3.393 1.68139C4.17581 0.941163 5.19263 0.571045 6.44499 0.571045C6.61573 0.571045 6.80782 0.58585 7.02126 0.61546C7.23468 0.630264 7.41228 0.65247 7.55482 0.682079V2.9916C7.42676 2.96199 7.28423 2.94718 7.12797 2.94718C6.98543 2.93238 6.865 2.92498 6.76514 2.92498C6.15307 2.92498 5.6698 3.08782 5.31384 3.41353C4.97235 3.72443 4.80161 4.18337 4.80161 4.79036V5.47877H7.40542V7.87712H4.80161V17.4483H2.24049ZM13.2358 17.7148C12.3821 17.7148 11.6275 17.5075 10.9735 17.093C10.3187 16.6784 9.80647 16.1085 9.43678 15.383C9.06633 14.6576 8.88187 13.8359 8.88187 12.9181V5.47877H11.443V12.585C11.443 13.3993 11.6633 14.0506 12.1046 14.5392C12.5597 15.0129 13.1573 15.2498 13.8974 15.2498C14.6231 15.2498 15.2062 15.0129 15.6475 14.5392C16.1026 14.0506 16.3305 13.3993 16.3305 12.585V5.47877H18.8916V17.4483H16.4585V16.0493C16.1452 16.5822 15.7039 16.9968 15.1353 17.2928C14.5804 17.5742 13.9469 17.7148 13.2358 17.7148ZM21.3711 17.4483V5.47877H23.7829V6.90001C24.1099 6.35224 24.5581 5.93772 25.1274 5.65643C25.6968 5.36034 26.3371 5.21229 27.0483 5.21229C27.902 5.21229 28.649 5.40475 29.2893 5.78967C29.944 6.17458 30.4563 6.70015 30.8259 7.36636C31.1956 8.03256 31.3808 8.80243 31.3808 9.67587V17.4483H28.8197V10.3421C28.8197 9.5278 28.5918 8.8838 28.1368 8.41008C27.6954 7.92153 27.1123 7.67725 26.3867 7.67725C25.6465 7.67725 25.0489 7.92153 24.5939 8.41008C24.1525 8.89863 23.9323 9.54263 23.9323 10.3421V17.4483H21.3711ZM38.919 17.7148C37.795 17.7148 36.7847 17.4409 35.8883 16.8931C34.992 16.3453 34.2876 15.5977 33.7754 14.6502C33.2632 13.7027 33.0071 12.6368 33.0071 11.4524C33.0071 10.2533 33.2632 9.18732 33.7754 8.25463C34.2876 7.32194 34.992 6.58172 35.8883 6.03394C36.7847 5.48617 37.795 5.21229 38.919 5.21229C39.73 5.21229 40.477 5.36034 41.16 5.65643C41.8572 5.95252 42.4548 6.35965 42.9528 6.8778C43.465 7.39596 43.835 7.98815 44.0626 8.65436L41.8429 9.80912C41.6153 9.15774 41.2453 8.63953 40.7331 8.25463C40.2209 7.86972 39.6162 7.67725 38.919 7.67725C38.293 7.67725 37.731 7.8401 37.2329 8.1658C36.7492 8.49153 36.365 8.94305 36.0804 9.52042C35.8101 10.083 35.6749 10.7344 35.6749 11.4746C35.6749 12.2001 35.8101 12.8515 36.0804 13.4288C36.365 13.9914 36.7492 14.4355 37.2329 14.7613C37.731 15.087 38.293 15.2498 38.919 15.2498C39.6162 15.2498 40.2209 15.0573 40.7331 14.6724C41.2453 14.2875 41.6153 13.7693 41.8429 13.1179L44.0626 14.2949C43.835 14.9463 43.4722 15.5311 42.9741 16.0493C42.4761 16.5674 41.8785 16.9746 41.1813 17.2706C40.4842 17.5667 39.73 17.7148 38.919 17.7148ZM50.8806 17.5815C49.5858 17.5815 48.5898 17.2188 47.8926 16.4934C47.1954 15.7679 46.8468 14.7464 46.8468 13.4288V7.87712H44.7552V5.47877H45.0967C45.6516 5.47877 46.0785 5.32332 46.3773 5.01243C46.6903 4.70153 46.8468 4.25739 46.8468 3.68001V1.77022L49.4079 1.77022V5.47877H52.1398V7.87712H49.4079V13.4288C49.4079 13.7693 49.4649 14.095 49.5787 14.4059C49.6925 14.702 49.8917 14.9463 50.1763 15.1388C50.4751 15.3164 50.8948 15.4053 51.4355 15.4053C51.6774 15.4053 51.9335 15.383 52.2038 15.3386V17.4705C52.0046 17.5149 51.7841 17.5445 51.5422 17.5593C51.3003 17.5742 51.0798 17.5815 50.8806 17.5815ZM53.9251 3.90208V0.904149L56.4862 0.904149V3.90208H53.9251ZM53.9251 17.4483V5.47877H56.4862V17.4483H53.9251ZM64.2664 17.7148C63.1424 17.7148 62.1179 17.4483 61.1931 16.9153C60.2825 16.3675 59.5568 15.6273 59.0162 14.6946C58.4897 13.7471 58.2265 12.6664 58.2265 11.4524C58.2265 10.2533 58.4897 9.18732 59.0162 8.25463C59.5568 7.30714 60.2825 6.56691 61.1931 6.03394C62.1037 5.48617 63.1281 5.21229 64.2664 5.21229C65.3904 5.21229 66.4078 5.48617 67.3185 6.03394C68.229 6.56691 68.9547 7.30714 69.4954 8.25463C70.0361 9.18732 70.3064 10.2533 70.3064 11.4524C70.3064 12.6664 70.0361 13.7471 69.4954 14.6946C68.9547 15.6273 68.2219 16.3675 67.2971 16.9153C66.3865 17.4483 65.3763 17.7148 64.2664 17.7148ZM64.2664 15.2498C64.9067 15.2498 65.483 15.087 65.9952 14.7613C66.5074 14.4355 66.9058 13.9914 67.1904 13.4288C67.4892 12.8515 67.6386 12.2001 67.6386 11.4746C67.6386 10.7492 67.4892 10.0978 67.1904 9.52042C66.9058 8.94305 66.5074 8.49153 65.9952 8.1658C65.483 7.8401 64.9067 7.67725 64.2664 7.67725C63.6119 7.67725 63.0286 7.8401 62.5164 8.1658C62.0041 8.49153 61.6057 8.94305 61.3212 9.52042C61.0365 10.0978 60.8943 10.7492 60.8943 11.4746C60.8943 12.2001 61.0365 12.8515 61.3212 13.4288C61.6057 13.9914 62.0041 14.4355 62.5164 14.7613C63.0286 15.087 63.6119 15.2498 64.2664 15.2498ZM72.1225 17.4483V5.47877H74.5343V6.90001C74.8615 6.35224 75.3097 5.93772 75.8788 5.65643C76.448 5.36034 77.0883 5.21229 77.7997 5.21229C78.6534 5.21229 79.4004 5.40475 80.0407 5.78967C80.6952 6.17458 81.2074 6.70015 81.5773 7.36636C81.9472 8.03256 82.1322 8.80243 82.1322 9.67587V17.4483H79.5711V10.3421C79.5711 9.5278 79.3434 8.8838 78.8882 8.41008C78.447 7.92153 77.8637 7.67725 77.1381 7.67725C76.3982 7.67725 75.8006 7.92153 75.3453 8.41008C74.9042 8.89863 74.6836 9.54263 74.6836 10.3421V17.4483H72.1225ZM84.3134 3.90208V0.904149L86.8745 0.904149V3.90208H84.3134ZM84.3134 17.4483V5.47877L86.8745 5.47877V17.4483H84.3134ZM94.4413 17.5815C93.1465 17.5815 92.1505 17.2188 91.4533 16.4934C90.7561 15.7679 90.4075 14.7464 90.4075 13.4288V7.87712H88.316V5.47877H88.6574C89.2124 5.47877 89.6392 5.32332 89.938 5.01243C90.251 4.70153 90.4075 4.25739 90.4075 3.68001V1.77022L92.9687 1.77022V5.47877H95.7005V7.87712H92.9687V13.4288C92.9687 13.7693 93.0255 14.095 93.1394 14.4059C93.2532 14.702 93.4524 14.9463 93.737 15.1388C94.0358 15.3164 94.4555 15.4053 94.9962 15.4053C95.2381 15.4053 95.4942 15.383 95.7646 15.3386V17.4705C95.5653 17.5149 95.3448 17.5445 95.1029 17.5593C94.861 17.5742 94.6405 17.5815 94.4413 17.5815ZM98.8517 22.3338C98.5386 22.3338 98.2328 22.3116 97.934 22.2672C97.6494 22.2228 97.3933 22.1413 97.1656 22.0229V19.78C97.3221 19.8244 97.5214 19.8615 97.7632 19.891C98.0193 19.9355 98.2612 19.9577 98.4889 19.9577C98.9727 19.9577 99.3497 19.8688 99.62 19.6912C99.9046 19.5284 100.118 19.321 100.26 19.0694C100.417 18.8177 100.545 18.5735 100.644 18.3366L101.029 17.4039L96.504 5.47877H99.2999L102.395 13.9396L105.489 5.47877H108.285L103.163 18.8473C103.035 19.173 102.871 19.5357 102.672 19.9355C102.487 20.3352 102.231 20.7127 101.904 21.068C101.576 21.4382 101.164 21.7416 100.666 21.9785C100.182 22.2154 99.5773 22.3338 98.8517 22.3338Z" fill="white" fill-opacity="0.8"/>
</g>
<defs>
<clipPath id="clip0_51_2750">
<rect width="23" height="109" fill="white" transform="translate(109) rotate(90)"/>
</clipPath>
</defs>
</svg>
