<svg width="58" height="19" viewBox="0 0 58 19" fill="none" xmlns="http://www.w3.org/2000/svg">
<g clip-path="url(#clip0_51_2759)">
<path d="M5.48513 18.8161C7.9018 18.8161 9.20681 17.0018 9.20681 15.2367C9.20681 14.7709 8.62681 14.6729 8.33681 15.0896C8.14347 15.6535 7.66013 16.1929 6.69346 16.1929C5.99263 16.1929 5.46096 15.6044 5.46096 14.6238V8.22509H8.24014C8.50597 8.22509 8.72347 8.02896 8.72347 7.73477V7.318C8.72347 7.0238 8.50597 6.80315 8.24014 6.80315H5.46096L5.4368 4.37606C5.4368 4.00832 5.24346 3.78767 4.90513 3.78767H4.4218C4.15596 3.78767 3.93846 4.00832 3.86596 4.37606C3.60013 5.82252 2.65763 6.80315 1.3043 6.80315H0.70013C0.385964 6.80315 0.216797 6.99928 0.216797 7.318V7.73477C0.216797 8.02896 0.41013 8.22509 0.70013 8.22509H1.83596V14.5748C1.83596 17.3696 3.28596 18.8161 5.48513 18.8161ZM21.9111 16.0703V7.09735C21.9111 6.68058 21.6211 6.58252 20.9927 6.65606L17.8994 7.12187C17.6094 7.1709 17.4161 7.39154 17.4161 7.6367V7.71026C17.4161 8.24961 18.3827 8.4948 18.3827 9.5735V14.5503C18.3827 16.2909 17.4644 17.4186 16.3044 17.4186C14.9752 17.4186 14.2986 16.3644 14.2986 14.0844L14.3711 7.09735C14.3711 6.68058 14.0086 6.58252 13.3802 6.65606L10.3352 7.12187C10.0211 7.1709 9.82773 7.39154 9.82773 7.6367V7.71026C9.82773 8.24961 10.7702 8.4948 10.7702 9.5735V13.7167C10.7702 17.0754 12.7761 18.8161 15.2652 18.8161C16.9327 18.8161 18.1169 18.2031 18.7694 17.1244C18.8419 18.3257 19.5427 18.718 20.9202 18.718C22.2736 18.718 23.0711 18.5709 23.0711 18.007C23.0711 17.0999 21.9111 18.007 21.9111 16.0703ZM27.0335 5.06252C28.4593 5.06252 29.3777 4.15541 29.3777 2.90509C29.3777 1.67928 28.4593 0.772188 27.0335 0.772188C25.6077 0.772188 24.641 1.67928 24.641 2.90509C24.641 4.15541 25.6077 5.06252 27.0335 5.06252ZM24.8343 18.5709H29.281C29.6193 18.5709 29.8368 18.3993 29.8368 18.1542V18.0561C29.8368 17.4431 28.8218 17.247 28.8218 16.1929V7.14639C28.8218 6.70509 28.4352 6.36187 27.831 6.65606L24.8102 8.17606C24.496 8.34767 24.3027 8.47026 24.3027 8.69091V8.76443C24.3027 9.30379 25.221 9.5735 25.221 10.6522V16.1929C25.221 17.247 24.3027 17.4431 24.3027 18.0561V18.1542C24.3027 18.3993 24.5202 18.5709 24.8343 18.5709ZM43.0338 16.2174V0.649608C43.0338 0.0857358 42.7438 -0.0613614 42.0913 0.159284L38.9254 1.13993C38.6113 1.238 38.4179 1.45864 38.4179 1.7038V1.77735C38.4179 2.39026 39.6263 2.4638 39.6263 3.59154V7.51413C38.9013 6.90122 37.9829 6.558 36.7988 6.558C33.7054 6.558 31.0954 9.03415 31.0954 12.6625C31.0954 16.6096 33.8263 18.8161 36.7746 18.8161C38.0071 18.8161 39.1913 18.3503 39.9163 17.4922L39.9646 18.0316C39.9646 18.3503 40.1821 18.5709 40.5204 18.5709H43.5171C43.8071 18.5709 44.0004 18.4238 44.0004 18.1542V18.0805C44.0004 17.4922 43.0338 17.247 43.0338 16.2174ZM37.5721 17.7618C35.5663 17.6883 34.4546 13.9129 34.5513 11.2161C34.5996 8.9361 35.5179 7.61219 36.9921 7.61219C38.4179 7.61219 39.6263 9.2548 39.6263 10.8238V15.1386C39.6263 16.8793 38.5629 17.7618 37.5721 17.7618ZM51.7824 18.8161C55.3108 18.8161 57.9208 16.2174 57.9208 12.7361C57.9208 9.2548 55.1416 6.558 51.4199 6.558C48.0366 6.558 45.1608 9.0586 45.1608 12.6135C45.1608 16.0212 47.8916 18.8161 51.7824 18.8161ZM52.2174 17.7374C50.0183 17.7374 48.7133 13.7167 48.7133 11.2161C48.7133 8.88703 49.4866 7.6367 50.9366 7.6367C52.9908 7.6367 54.2958 11.5103 54.2958 14.1825C54.2958 16.438 53.5224 17.7374 52.2174 17.7374Z" fill="white" fill-opacity="0.8"/>
</g>
<defs>
<clipPath id="clip0_51_2759">
<rect width="58" height="19" fill="white" transform="translate(-0.000488281)"/>
</clipPath>
</defs>
</svg>
