<svg width="89" height="17" viewBox="0 0 89 17" fill="none" xmlns="http://www.w3.org/2000/svg">
<path d="M29.6666 3.69565H24.7222V0H38.8491V2.95652H33.7656V16.2609H29.6666V3.69565Z" fill="white" fill-opacity="0.8"/>
<path d="M47.3256 3.69604V16.2613L43.173 16.2613V14.9324C42.7351 15.4365 42.2095 15.8183 41.5964 16.078C40.9833 16.3377 40.3337 16.4675 39.6476 16.4675C38.1148 16.4675 36.8886 15.994 35.9689 15.0469C35.0638 14.0998 34.6113 12.6792 34.6113 10.7851V3.84243H38.7717V10.0748C38.7717 11.0066 38.9396 11.6863 39.2754 12.1141C39.6111 12.5417 40.1001 12.7556 40.7424 12.7556C41.3993 12.7556 41.9321 12.5188 42.3409 12.0453C42.7642 11.5565 42.9759 10.8156 42.9759 9.82276V3.69604H47.3256Z" fill="white" fill-opacity="0.8"/>
<path d="M55.7394 15.7571C55.3891 15.9862 54.9584 16.1619 54.4475 16.2841C53.9512 16.4063 53.4184 16.4674 52.849 16.4674C51.3016 16.4674 50.1119 16.0702 49.2799 15.2759C48.4478 14.4816 48.0317 13.2977 48.0317 11.7244V7.55424V4.30056V1.06982H52.1921V4.30056H54.3889V7.55424H52.1921V11.6786C52.1921 12.1216 52.3016 12.4729 52.5206 12.7326C52.7541 12.9769 53.0607 13.0992 53.4403 13.0992C53.922 13.0992 54.3453 12.9693 54.7103 12.7097L55.7394 15.7571Z" fill="white" fill-opacity="0.8"/>
<path d="M67.8095 3.84229V16.2612H63.6569V14.9322C63.2189 15.4363 62.6934 15.8182 62.0803 16.0779C61.4672 16.3375 60.8176 16.4674 60.1315 16.4674C58.5987 16.4674 57.3725 15.9938 56.4528 15.0468C55.5477 14.0997 55.0952 12.6791 55.0952 10.785V3.84229H59.2556V10.0747C59.2556 11.0064 59.4234 11.6862 59.7592 12.1139C60.095 12.5416 60.584 12.7555 61.2263 12.7555C61.8832 12.7555 62.416 12.5187 62.8248 12.0452C63.2481 11.5563 63.4598 10.8155 63.4598 9.82262V3.84229H67.8095Z" fill="white" fill-opacity="0.8"/>
<path d="M83.9751 3.63623C85.4352 3.63623 86.5957 4.09449 87.4567 5.01101C88.3326 5.92753 88.7705 7.30995 88.7705 9.1583V16.2613H84.6101V9.86861C84.6101 8.99791 84.4498 8.35635 84.1284 7.94391C83.8219 7.53148 83.3839 7.32523 82.8146 7.32523C82.1867 7.32523 81.683 7.55439 81.3037 8.01265C80.9244 8.47091 80.7344 9.16592 80.7344 10.0977V16.2613H76.574V9.86861C76.574 8.17304 75.9757 7.32523 74.7785 7.32523C74.1364 7.32523 73.625 7.55439 73.2457 8.01265C72.8664 8.47091 72.6764 9.16592 72.6764 10.0977V16.2613H68.5161V3.84245H72.4793V5.14849C72.9172 4.6444 73.4357 4.27016 74.034 4.02575C74.6471 3.76607 75.3111 3.63623 76.0266 3.63623C76.8587 3.63623 77.6032 3.79662 78.2601 4.1174C78.917 4.43819 79.4496 4.927 79.8585 5.58384C80.3254 4.95755 80.9166 4.47638 81.6322 4.14032C82.3477 3.80426 83.1282 3.63623 83.9751 3.63623Z" fill="white" fill-opacity="0.8"/>
<path d="M0.264333 7.15083C0.739986 5.10893 1.84158 3.29569 3.39372 1.99983C4.94585 0.703974 6.85929 0 8.82936 0C10.7994 0 12.7129 0.703974 14.265 1.99983C15.8171 3.29569 16.9188 5.10893 17.3944 7.15083H16.6208C15.3156 7.1303 14.0373 7.54689 12.9652 8.34212C12.9033 8.38994 12.8387 8.43363 12.7718 8.47295H12.6815C12.6146 8.43363 12.55 8.38994 12.4881 8.34212C11.4066 7.5653 10.1327 7.15041 8.82936 7.15041C7.52601 7.15041 6.25219 7.5653 5.17061 8.34212C5.10874 8.38994 5.04415 8.43363 4.9772 8.47295H4.88694C4.81999 8.43363 4.7554 8.38994 4.69352 8.34212C3.62145 7.54689 2.34309 7.1303 1.03799 7.15083H0.264333ZM15.2282 11.4683C15.6253 11.138 16.1175 10.9651 16.6208 10.9794H17.6587V8.76904H16.6208C15.7344 8.75759 14.8683 9.0522 14.1515 9.60907C13.7481 9.92674 13.2601 10.0981 12.7589 10.0981C12.2577 10.0981 11.7697 9.92674 11.3663 9.60907C10.6313 9.06263 9.75715 8.76964 8.86157 8.76964C7.96599 8.76964 7.09189 9.06263 6.35689 9.60907C5.95349 9.92674 5.46548 10.0981 4.9643 10.0981C4.46313 10.0981 3.97511 9.92674 3.57172 9.60907C2.84603 9.04511 1.96754 8.75005 1.07023 8.76904H0V10.9794H1.03799C1.5412 10.9651 2.03342 11.138 2.43058 11.4683C3.16426 12.0152 4.03739 12.3084 4.93207 12.3084C5.82674 12.3084 6.69987 12.0152 7.43355 11.4683C7.83122 11.139 8.32312 10.9663 8.82612 10.9794C9.32953 10.964 9.82207 11.1369 10.2188 11.4683C10.9538 12.0148 11.8279 12.3077 12.7235 12.3077C13.619 12.3077 14.4932 12.0148 15.2282 11.4683ZM15.2282 15.4208C15.6253 15.0905 16.1175 14.9176 16.6208 14.9319H17.6587V12.7215H16.6208C15.7344 12.7101 14.8683 13.0047 14.1515 13.5616C13.7481 13.8792 13.2601 14.0506 12.7589 14.0506C12.2577 14.0506 11.7697 13.8792 11.3663 13.5616C10.6313 13.0151 9.75715 12.7222 8.86157 12.7222C7.96599 12.7222 7.09189 13.0151 6.35689 13.5616C5.95349 13.8792 5.46548 14.0506 4.9643 14.0506C4.46313 14.0506 3.97511 13.8792 3.57172 13.5616C2.84603 12.9976 1.96754 12.7026 1.07023 12.7215H0V14.9319H1.03799C1.5412 14.9176 2.03342 15.0905 2.43058 15.4208C3.16426 15.9677 4.03739 16.2609 4.93207 16.2609C5.82674 16.2609 6.69987 15.9677 7.43355 15.4208C7.83122 15.0915 8.32312 14.9188 8.82612 14.9319C9.32953 14.9165 9.82207 15.0894 10.2188 15.4208C10.9538 15.9673 11.8279 16.2603 12.7235 16.2603C13.619 16.2603 14.4932 15.9673 15.2282 15.4208Z" fill="white" fill-opacity="0.8"/>
</svg>
