<svg width="82" height="19" viewBox="0 0 82 19" fill="none" xmlns="http://www.w3.org/2000/svg">
<g clip-path="url(#clip0_51_2741)">
<path d="M2.29834 5.91662L5.97684 16.5659H10.575L13.1131 8.98817L15.7801 16.5659H20.2127L24.0383 5.89823H20.5253L17.8216 14.3036L15.026 5.89823H11.421L8.58858 14.3036L5.88488 5.89823C5.92167 6.02698 5.92167 6.06376 5.79292 6.06376C5.53543 6.06376 4.78133 5.91662 2.70298 5.91662H2.29834ZM24.0621 11.416C24.0621 14.929 27.5199 16.8602 31.0329 16.8602C34.5091 16.8602 37.9117 14.9657 37.9117 11.416C37.9117 7.82945 34.6011 5.93502 31.1433 5.93502C27.6119 5.93502 24.0621 7.9398 24.0621 11.416ZM30.9961 7.88462C33.2032 7.88462 34.3803 9.4296 34.3803 11.416C34.3803 13.4392 33.0009 15.0577 30.9961 15.0577C28.9913 15.0577 27.5935 13.4392 27.5935 11.416C27.5935 9.63191 28.7706 7.88462 30.9961 7.88462ZM43.0944 2.23812H39.7102V16.5659H43.0944V2.23812ZM44.8974 11.5631C44.8974 14.3404 47.7483 16.7314 51.5739 16.7314C53.6155 16.7314 55.6938 16.0693 56.9445 14.3772V16.5659H60.3471V2.21973H56.9445V8.91461C55.8961 7.7007 53.3948 6.54197 51.3532 6.54197C47.7483 6.54197 44.8974 8.39961 44.8974 11.5631ZM48.3184 11.5631C48.3184 9.57674 49.7898 8.38122 52.2728 8.38122C55.0869 8.38122 56.9445 10.2021 56.9445 11.7287C56.9445 12.9242 55.1604 14.837 52.6775 14.837C50.2864 14.837 48.3184 13.807 48.3184 11.5631ZM66.2792 16.5659V7.36963H62.8766V16.5659H66.2792ZM66.2792 5.82466V2.25651H62.8766V5.82466H66.2792ZM75.1891 16.805C77.9847 16.805 80.3387 15.7566 81.2584 14.1197L78.6098 13.6783C77.764 14.5979 76.4765 15.0761 75.1523 15.0761C73.2394 15.0761 71.9152 13.899 71.86 12.4828C73.0371 12.4828 80.9089 12.446 81.9389 12.446C82.0125 12.1701 82.0492 11.8574 82.0492 11.5631C82.0309 7.92141 78.7754 6.2109 75.281 6.2109C71.4738 6.2109 68.2183 8.28926 68.2183 11.5263C68.2183 14.745 71.3818 16.805 75.1891 16.805ZM75.1523 8.05016C77.1019 8.05016 78.4627 9.31924 78.4627 11.1401L71.8048 11.1585C71.7864 9.63191 73.0004 8.05016 75.1523 8.05016Z" fill="white" fill-opacity="0.8"/>
</g>
<g clip-path="url(#clip1_51_2741)">
<path d="M0 5.91662L3.6785 16.5659H8.27664L10.8148 8.98817L13.4817 16.5659H17.9143L21.74 5.89823H18.227L15.5233 14.3036L12.7276 5.89823H9.12269L6.29024 14.3036L3.58654 5.89823C3.62333 6.02698 3.62333 6.06376 3.49458 6.06376C3.23708 6.06376 2.48299 5.91662 0.404636 5.91662H0ZM21.7638 11.416C21.7638 14.929 25.2216 16.8602 28.7346 16.8602C32.2107 16.8602 35.6134 14.9657 35.6134 11.416C35.6134 7.82945 32.3027 5.93502 28.8449 5.93502C25.3136 5.93502 21.7638 7.9398 21.7638 11.416ZM28.6978 7.88462C30.9049 7.88462 32.082 9.4296 32.082 11.416C32.082 13.4392 30.7026 15.0577 28.6978 15.0577C26.693 15.0577 25.2952 13.4392 25.2952 11.416C25.2952 9.63191 26.4723 7.88462 28.6978 7.88462ZM40.7961 2.23812H37.4118V16.5659H40.7961V2.23812ZM42.5991 11.5631C42.5991 14.3404 45.4499 16.7314 49.2756 16.7314C51.3171 16.7314 53.3955 16.0693 54.6462 14.3772V16.5659H58.0488V2.21973H54.6462V8.91461C53.5978 7.7007 51.0964 6.54197 49.0548 6.54197C45.4499 6.54197 42.5991 8.39961 42.5991 11.5631ZM46.0201 11.5631C46.0201 9.57674 47.4915 8.38122 49.9745 8.38122C52.7885 8.38122 54.6462 10.2021 54.6462 11.7287C54.6462 12.9242 52.8621 14.837 50.3791 14.837C47.9881 14.837 46.0201 13.807 46.0201 11.5631ZM63.9808 16.5659V7.36963H60.5782V16.5659H63.9808ZM63.9808 5.82466V2.25651H60.5782V5.82466H63.9808ZM72.8907 16.805C75.6864 16.805 78.0402 15.7566 78.9599 14.1197L76.3115 13.6783C75.4657 14.5979 74.1782 15.0761 72.8539 15.0761C70.9411 15.0761 69.6168 13.899 69.5617 12.4828C70.7388 12.4828 78.6104 12.446 79.6404 12.446C79.714 12.1701 79.7507 11.8574 79.7507 11.5631C79.7324 7.92141 76.477 6.2109 72.9827 6.2109C69.1754 6.2109 65.92 8.28926 65.92 11.5263C65.92 14.745 69.0835 16.805 72.8907 16.805ZM72.8539 8.05016C74.8035 8.05016 76.1644 9.31924 76.1644 11.1401L69.5065 11.1585C69.4881 9.63191 70.702 8.05016 72.8539 8.05016Z" fill="white" fill-opacity="0.8"/>
</g>
<path d="M28.8359 5.93872H31.5272L31.4321 7.89916H29.1148L28.8359 5.93872Z" fill="white" fill-opacity="0.8"/>
<path d="M29.1074 15.0388H31.5581L31.4531 16.8456H29.1074V15.0388Z" fill="white" fill-opacity="0.8"/>
<defs>
<clipPath id="clip0_51_2741">
<rect width="50.5794" height="17.6262" fill="white" transform="translate(31.4199 0.687012)"/>
</clipPath>
<clipPath id="clip1_51_2741">
<rect width="29.1215" height="17.6262" fill="white" transform="translate(0 0.687012)"/>
</clipPath>
</defs>
</svg>
