<svg width="108" height="30" viewBox="0 0 108 30" fill="none" xmlns="http://www.w3.org/2000/svg">
<path d="M38.88 25.3C42.27 25.3 44.64 23.8 45.42 21.28H45.63V25H48.6V15.94C48.6 12.37 46.47 9.79 41.73 9.79C36.99 9.79 34.17 12.34 34.17 15.73V15.85H37.38V15.73C37.38 13.54 38.73 12.64 41.49 12.64C44.34 12.64 45.42 13.51 45.42 15.97V16.84L38.64 17.56C35.7 17.89 33.84 19.09 33.84 21.4C33.84 23.86 35.79 25.3 38.88 25.3ZM37.08 21.19C37.08 20.02 37.89 19.63 39.57 19.42L45.42 18.76C45.42 21.7 43.14 22.96 39.75 22.96C37.89 22.96 37.08 22.39 37.08 21.19ZM57.9422 25.3C62.1422 25.3 64.9022 23.65 64.9022 20.86C64.9022 18.4 63.2822 17.2 59.7422 16.75L56.2922 16.27C54.0422 15.97 53.4422 15.55 53.4422 14.38C53.4422 12.97 54.4022 12.37 57.1322 12.37C60.4322 12.37 61.3322 13.3 61.3322 15.07V15.25H64.5422V15.16C64.5422 11.62 61.7822 9.79 57.2222 9.79C52.6322 9.79 50.2622 11.65 50.2622 14.26C50.2622 16.75 51.9722 17.95 54.7922 18.31L58.8722 18.85C61.0022 19.15 61.7222 19.54 61.7222 20.77C61.7222 22.09 60.8522 22.69 57.9422 22.69C54.8222 22.69 53.6522 22.06 53.6522 20.11V19.87H50.4122V19.96C50.4122 23.41 53.1422 25.3 57.9422 25.3ZM76.4198 25V22.09H73.7198C71.8598 22.09 71.0198 21.61 71.0198 19.78V12.79H76.4198V10.09H71.0198V6.82H67.8098V10.09H65.2898V12.79H67.8098V19.96C67.8098 23.59 69.7898 25 72.9998 25H76.4198ZM81.0865 25V16.63C81.0865 13.96 82.1365 12.55 84.6865 12.55C86.9065 12.55 87.8065 13.54 87.8065 15.67V16.99H91.0165V15.04C91.0165 12.22 89.5465 9.79 86.1565 9.79C83.0965 9.79 81.4765 11.71 81.0265 14.11H80.8165V10.09H77.8465V25H81.0865ZM96.8316 25.3C100.222 25.3 102.592 23.8 103.372 21.28H103.582V25H106.552V15.94C106.552 12.37 104.422 9.79 99.6816 9.79C94.9416 9.79 92.1216 12.34 92.1216 15.73V15.85H95.3316V15.73C95.3316 13.54 96.6816 12.64 99.4416 12.64C102.292 12.64 103.372 13.51 103.372 15.97V16.84L96.5916 17.56C93.6516 17.89 91.7916 19.09 91.7916 21.4C91.7916 23.86 93.7416 25.3 96.8316 25.3ZM95.0316 21.19C95.0316 20.02 95.8416 19.63 97.5216 19.42L103.372 18.76C103.372 21.7 101.092 22.96 97.7016 22.96C95.8416 22.96 95.0316 22.39 95.0316 21.19Z" fill="white"/>
<path fill-rule="evenodd" clip-rule="evenodd" d="M12 29C18.6274 29 24 23.6274 24 17C24 10.3726 18.6274 5 12 5C5.37258 5 0 10.3726 0 17C0 23.6274 5.37258 29 12 29ZM12 23C15.3137 23 18 20.3137 18 17C18 13.6863 15.3137 11 12 11C8.68629 11 6 13.6863 6 17C6 20.3137 8.68629 23 12 23Z" fill="#5CE115"/>
</svg>
