<svg width="56" height="19" viewBox="0 0 56 19" fill="none" xmlns="http://www.w3.org/2000/svg">
<path d="M4.29058 18.6468L2.0194 6.60266H1.96467V18.6468H0.186035V0.224779H2.59404L4.7284 12.0318V0.224779H6.67121V18.6468H4.29058ZM11.3669 11.8473V18.6468H9.20515V11.8473L7.15288 0.224779H9.28724L10.245 7.15611H10.3271L11.2848 0.224779H13.4192L11.3669 11.8473ZM17.4239 7.6305V3.01839C17.4239 2.56157 17.3691 2.24532 17.2597 2.06962C17.1502 1.89392 16.9951 1.80607 16.7945 1.80607H16.685C16.4844 1.80607 16.3293 1.9027 16.2199 2.09597C16.1104 2.27167 16.0557 2.58793 16.0557 3.04475V5.25856C16.0557 6.11948 16.2381 6.85744 16.6029 7.47237C16.9678 8.08729 17.3691 8.68469 17.8069 9.2645C18.2448 9.82671 18.6461 10.4241 19.0109 11.0566C19.3758 11.6716 19.5582 12.4183 19.5582 13.2968V16.1431C19.5582 16.6175 19.4852 17.0216 19.3393 17.3554C19.1934 17.6893 19.0018 17.9616 18.7647 18.1724C18.5275 18.3833 18.2539 18.5414 17.9438 18.6468C17.6337 18.7522 17.3144 18.8049 16.986 18.8049H16.5756C16.2472 18.8049 15.928 18.7522 15.6179 18.6468C15.3078 18.559 15.025 18.4096 14.7696 18.1988C14.5142 17.9704 14.3044 17.6893 14.1402 17.3554C13.9943 17.0216 13.9213 16.6175 13.9213 16.1431V11.2148H15.8641V15.8269C15.8641 16.2836 15.9371 16.6087 16.083 16.802C16.229 16.9777 16.4023 17.0655 16.6029 17.0655H16.7124C16.913 17.0655 17.0772 16.9777 17.2049 16.802C17.3509 16.6087 17.4239 16.2836 17.4239 15.8269V13.613C17.4239 12.7521 17.2414 12.0142 16.8766 11.3992C16.5118 10.7843 16.1104 10.1957 15.6726 9.63346C15.2348 9.05366 14.8334 8.45626 14.4686 7.84134C14.1038 7.20882 13.9213 6.45329 13.9213 5.57481V2.72849C13.9213 2.2541 13.9943 1.84999 14.1402 1.51617C14.3044 1.18234 14.505 0.910007 14.7422 0.699168C14.9976 0.488328 15.2804 0.330199 15.5905 0.224779C15.9006 0.11936 16.2108 0.0666504 16.5209 0.0666504H16.7945C17.1229 0.0666504 17.433 0.11936 17.7249 0.224779C18.035 0.330199 18.3086 0.488328 18.5458 0.699168C18.8011 0.910007 19.0018 1.18234 19.1478 1.51617C19.2937 1.84999 19.3667 2.2541 19.3667 2.72849V7.6305H17.4239ZM24.0822 9.10637L26.326 18.6468H24.3558L22.6046 11.8736H22.5498V18.6468H20.4155V0.224779H22.5498V7.18246H22.6046L24.4106 0.224779H26.3807L24.0822 9.10637ZM30.2753 13.7712H28.7703L28.3599 18.6468H26.5265L28.2231 0.224779H30.9594L32.7654 18.6468H30.7132L30.2753 13.7712ZM28.9072 12.2426H30.1385L29.5639 5.91743H29.4818L28.9072 12.2426ZM38.3694 0.224779V18.6468H36.2351V0.224779H38.3694ZM43.3319 18.6468L41.0607 6.60266H41.006V18.6468H39.2273V0.224779H41.6353L43.7697 12.0318V0.224779H45.7125V18.6468H43.3319ZM49.0947 18.8049C48.7846 18.8049 48.4745 18.7522 48.1644 18.6468C47.8542 18.5414 47.5715 18.3833 47.3161 18.1724C47.0789 17.9616 46.8874 17.6893 46.7414 17.3554C46.5955 17.0216 46.5225 16.6175 46.5225 16.1431V2.72849C46.5225 2.2541 46.5955 1.84999 46.7414 1.51617C46.8874 1.18234 47.0789 0.910007 47.3161 0.699168C47.5715 0.488328 47.8542 0.330199 48.1644 0.224779C48.4745 0.11936 48.7846 0.0666504 49.0947 0.0666504H49.5873C49.8974 0.0666504 50.2075 0.11936 50.5176 0.224779C50.8277 0.330199 51.1014 0.488328 51.3385 0.699168C51.5939 0.910007 51.7946 1.18234 51.9405 1.51617C52.0865 1.84999 52.1594 2.2541 52.1594 2.72849V7.65685H50.0251V3.01839C50.0251 2.56157 49.9704 2.24532 49.8609 2.06962C49.7514 1.89392 49.5964 1.80607 49.3957 1.80607H49.2863C49.0856 1.80607 48.9305 1.9027 48.8211 2.09597C48.7116 2.27167 48.6569 2.58793 48.6569 3.04475V15.8269C48.6569 16.2836 48.7116 16.6087 48.8211 16.802C48.9305 16.9777 49.0856 17.0655 49.2863 17.0655H49.3957C49.5964 17.0655 49.7514 16.9777 49.8609 16.802C49.9704 16.6087 50.0251 16.2836 50.0251 15.8269V11.1884H52.1594V16.1431C52.1594 16.6175 52.0865 17.0216 51.9405 17.3554C51.7946 17.6893 51.5939 17.9616 51.3385 18.1724C51.1014 18.3833 50.8277 18.5414 50.5176 18.6468C50.2075 18.7522 49.8974 18.8049 49.5873 18.8049H49.0947ZM55.4794 18.6468H53.2903V16.064H55.4794V18.6468Z" fill="white" fill-opacity="0.8"/>
</svg>
