<svg width="19" height="16" viewBox="0 0 19 16" fill="none" xmlns="http://www.w3.org/2000/svg">
<path d="M18.9323 1.89513C18.249 2.20585 17.521 2.4118 16.762 2.5118C17.5428 2.02846 18.1389 1.26894 18.4191 0.353465C17.691 0.803464 16.8871 1.12132 16.0305 1.2987C15.3392 0.535607 14.3539 0.0629883 13.2791 0.0629883C11.1937 0.0629883 9.51486 1.81775 9.51486 3.96894C9.51486 4.27846 9.54012 4.57608 9.60213 4.85942C6.47066 4.70108 3.69975 3.14513 1.83832 0.774893C1.51334 1.35942 1.32272 2.02846 1.32272 2.7487C1.32272 4.10108 1.99449 5.29989 2.99583 5.99394C2.39066 5.98204 1.79698 5.79989 1.29401 5.51299C1.29401 5.52489 1.29401 5.54037 1.29401 5.55584C1.29401 7.45346 2.59966 9.02964 4.31181 9.39268C4.00521 9.47964 3.67104 9.52125 3.32425 9.52125C3.0831 9.52125 2.83966 9.50697 2.61114 9.45459C3.09918 11.0011 4.48406 12.1379 6.13076 12.1749C4.84923 13.2141 3.22205 13.8403 1.46052 13.8403C1.15162 13.8403 0.855352 13.826 0.559082 13.7868C2.2276 14.9022 4.20502 15.5392 6.33746 15.5392C13.2688 15.5392 17.0583 9.58678 17.0583 4.42727C17.0583 4.25465 17.0525 4.08799 17.0445 3.92251C17.792 3.37251 18.4202 2.68561 18.9323 1.89513Z" fill="white"/>
</svg>
